<svg xmlns="http://www.w3.org/2000/svg" viewBox="0 0 480 300" width="480" height="300">
  <defs>
    <linearGradient id="cardBg" x1="0" y1="0" x2="1" y2="1">
      <stop offset="0%" stop-color="#0F0F12"></stop>
      <stop offset="100%" stop-color="#000"></stop>
    </linearGradient>
    <linearGradient id="goldChip" x1="0" y1="0" x2="1" y2="1">
      <stop offset="0%" stop-color="#D9C089"></stop>
      <stop offset="100%" stop-color="#8E6E2E"></stop>
    </linearGradient>
  </defs>
  <rect width="480" height="300" rx="22" fill="url(#cardBg)"></rect>

  
  <g transform="translate(28,32)">
    <path d="M0 8 q4 -8 10 -6 t10 4" stroke="#E50019" stroke-width="3.2" fill="none" stroke-linecap="round"></path>
    <text x="26" y="11" font-family="Inter, Arial, sans-serif" font-weight="800" font-size="11" letter-spacing="0.5" fill="#FFFFFF">YES BANK</text>
  </g>

  
  <g transform="translate(384,30)">
    <text x="0" y="11" font-family="Inter, Arial, sans-serif" font-weight="800" font-size="14" fill="#FFFFFF">RuPay</text>
    <path d="M50 4 l9 4 l-9 4 z" fill="#FF6A00"></path>
    <path d="M50 4 l9 4 l-9 4 z" fill="#0BA85D" opacity="0.7" transform="translate(2,0)"></path>
  </g>

  
  <rect x="32" y="148" width="48" height="38" rx="6" fill="url(#goldChip)"></rect>
  <rect x="38" y="155" width="36" height="3" fill="#5C4012" opacity="0.45"></rect>
  <rect x="38" y="163" width="36" height="3" fill="#5C4012" opacity="0.45"></rect>
  <rect x="38" y="171" width="36" height="3" fill="#5C4012" opacity="0.45"></rect>
  <rect x="38" y="179" width="36" height="3" fill="#5C4012" opacity="0.45"></rect>

  
  <g transform="translate(280,210)" opacity="0.96">
    <text x="0" y="0" text-anchor="middle" font-family="&#39;Bowlby One&#39;, &#39;Archivo Black&#39;, Impact, sans-serif" font-weight="900" font-size="170" letter-spacing="-6" fill="#1A1410">P</text>
    <text x="14" y="-12" text-anchor="middle" font-family="&#39;Bowlby One&#39;, &#39;Archivo Black&#39;, Impact, sans-serif" font-weight="900" font-size="170" letter-spacing="-6" fill="#3A7AFF">P</text>
  </g>

  
  <g transform="translate(28,234)">
    <text x="0" y="36" font-family="&#39;Bowlby One&#39;, &#39;Archivo Black&#39;, Impact, sans-serif" font-weight="900" font-size="46" letter-spacing="-2" fill="#F26B1A">pop</text>
    <text x="3" y="38" font-family="&#39;Bowlby One&#39;, &#39;Archivo Black&#39;, Impact, sans-serif" font-weight="900" font-size="46" letter-spacing="-2" fill="#FFFFFF">pop</text>
  </g>

  
  <g transform="translate(420,250)" fill="none" stroke="#FFFFFF" stroke-width="2.2" stroke-linecap="round">
    <path d="M0 14 q-7 -14 0 -28"></path>
    <path d="M8 8 q-4 -8 0 -16"></path>
    <path d="M16 4 q-2 -4 0 -8"></path>
  </g>
</svg>